<?xml version="1.0" encoding="UTF-8" standalone="no"?>
<!-- Created with Inkscape (http://www.inkscape.org/) -->

<svg
   xmlns:dc="http://purl.org/dc/elements/1.1/"
   xmlns:cc="http://creativecommons.org/ns#"
   xmlns:rdf="http://www.w3.org/1999/02/22-rdf-syntax-ns#"
   xmlns:svg="http://www.w3.org/2000/svg"
   xmlns="http://www.w3.org/2000/svg"
   xmlns:sodipodi="http://sodipodi.sourceforge.net/DTD/sodipodi-0.dtd"
   xmlns:inkscape="http://www.inkscape.org/namespaces/inkscape"
   sodipodi:docname="droos.alt.svg"
   viewBox="0 0 101.38831 123.3224"
   height="123.3224"
   width="101.38821"
   id="svg2"
   version="1.1"
   inkscape:version="0.92.5 (2060ec1f9f, 2020-04-08)">
  <metadata
     id="metadata8">
    <rdf:RDF>
      <cc:Work
         rdf:about="">
        <dc:format>image/svg+xml</dc:format>
        <dc:type
           rdf:resource="http://purl.org/dc/dcmitype/StillImage" />
        <dc:title />
      </cc:Work>
    </rdf:RDF>
  </metadata>
  <defs
     id="defs6" />
  <sodipodi:namedview
     pagecolor="#ffffff"
     bordercolor="#666666"
     borderopacity="1"
     objecttolerance="10"
     gridtolerance="10"
     guidetolerance="10"
     inkscape:pageopacity="0"
     inkscape:pageshadow="2"
     inkscape:window-width="1366"
     inkscape:window-height="738"
     id="namedview4"
     showgrid="false"
     showborder="false"
     inkscape:zoom="4.6463626"
     inkscape:cx="15.82807"
     inkscape:cy="70.270086"
     inkscape:window-x="0"
     inkscape:window-y="0"
     inkscape:window-maximized="1"
     inkscape:current-layer="svg2"
     inkscape:pagecheckerboard="true"
     fit-margin-top="0"
     fit-margin-left="0"
     fit-margin-right="0"
     fit-margin-bottom="0" />
  <g
     id="g834"
     style="stroke:#292629;stroke-opacity:1">
    <path
       inkscape:connector-curvature="0"
       id="path1210"
       d="m 60.1847,3.28582 a 12.815779,12.815779 0 0 1 3.3252,8.612364 v 0 A 12.815779,12.815779 0 0 1 50.6941,24.713961 12.815779,12.815779 0 0 1 37.8783,11.898184 12.815779,12.815779 0 0 1 41.2048,3.284358"
       style="opacity:1;fill:none;fill-opacity:0.08938545;fill-rule:evenodd;stroke:#292629;stroke-width:6.5;stroke-linecap:round;stroke-linejoin:round;stroke-miterlimit:4;stroke-dasharray:none;stroke-dashoffset:0;stroke-opacity:1;paint-order:normal" />
    <g
       style="fill:none;stroke:#292629;stroke-width:4.54130125;stroke-miterlimit:4;stroke-dasharray:none;stroke-opacity:1;opacity:1"
       transform="matrix(1.4313078,0,0,1.4313078,-128.69588,-81.960817)"
       id="g1214">
      <path
         sodipodi:nodetypes="cssscscsssc"
         d="m 116.81216,134.18666 c -2.26299,4.28502 -6.7111,6.96622 -11.55698,6.96622 -7.218162,0 -13.069639,-5.85148 -13.069637,-13.06964 4e-6,-7.21816 5.851479,-13.06963 13.069637,-13.06963 4.74771,0 9.12203,2.57465 11.17913,6.33197 1.48134,3.07482 5.02327,5.26687 8.89862,5.26687 3.87385,0 7.41468,-2.19037 8.89769,-5.26501 2.05802,-3.75918 6.43234,-6.33383 11.18005,-6.33383 7.21816,0 13.06964,5.85147 13.06964,13.06963 0,7.21816 -5.85148,13.06964 -13.06964,13.06964 -4.84588,0 -9.29399,-2.6812 -11.55698,-6.96622"
         style="opacity:0.98999999;fill:none;fill-opacity:0.08938545;fill-rule:evenodd;stroke:#292629;stroke-width:4.54130125;stroke-linecap:round;stroke-linejoin:round;stroke-miterlimit:4;stroke-dasharray:none;stroke-dashoffset:0;stroke-opacity:1;paint-order:normal"
         id="path1212"
         inkscape:connector-curvature="0" />
    </g>
    <path
       inkscape:connector-curvature="0"
       style="opacity:1;fill:none;fill-opacity:0.08938545;fill-rule:evenodd;stroke:#292629;stroke-width:6.5;stroke-linecap:round;stroke-linejoin:round;stroke-miterlimit:4;stroke-dasharray:none;stroke-dashoffset:0;stroke-opacity:1;paint-order:normal"
       d="m 62.7271,33.531614 a 33.784419,49.583532 38.413897 0 1 16.8058,5.304224 33.784419,49.583532 38.413897 0 1 9.1295,30.849404"
       id="path1216" />
    <path
       sodipodi:nodetypes="cssccccsc"
       inkscape:connector-curvature="0"
       d="m 60.7431,56.916781 c 1.7918,2.263892 2.7667,5.066482 2.7667,7.953658 0,7.077955 -5.7378,12.815777 -12.8157,12.815777 -7.078,0 -12.8158,-5.737822 -12.8158,-12.815777 v 0 c 0.3565,-13.5427 13.0135,-9.505245 13.1441,-21.581171 -0.7247,-6.979661 -5.7347,-10.607662 -13.1532,-9.990367 -5.7128,0.129936 -11.4981,1.955902 -16.014,5.536931 -8.0153,6.356028 -11.3724,17.699784 -9.1295,30.849397"
       style="opacity:1;fill:none;fill-opacity:0.08938545;fill-rule:evenodd;stroke:#292629;stroke-width:6.5;stroke-linecap:round;stroke-linejoin:round;stroke-miterlimit:4;stroke-dasharray:none;stroke-dashoffset:0;stroke-opacity:1;paint-order:normal"
       id="path1218" />
  </g>
</svg>
